# xmcd
#
# Track frame offsets: 
#        150
#        12735
#        31271
#        47091
#        64472
#        79950
#        97489
#        111048
#        128578
#        145977
#        161029
#        179756
#
# Disc length: 2618 seconds
#
# Revision: 0
# Processed by: cddbd v1.5.2PL0 Copyright (c) Steve Scherf et al.
# Submitted via: ExactAudioCopy v1.3
#
DISCID=b40a380c
DTITLE=Big Boy Bloater and The Limits - Pills
DYEAR=2018
DGENRE=Blues
TTITLE0=Pills
TTITLE1=Friday Night's Alright For Drinking
TTITLE2=The Saturday Night Desperation Shuffle
TTITLE3=Stop Stringing Me Along
TTITLE4=Unnaturally Charming
TTITLE5=Slackers Paradise
TTITLE6=Mouse Organ
TTITLE7=Oops Sorry (Gaffer Tape and Super Glue)
TTITLE8=She Didn't Even Buy A Ticket
TTITLE9=This Ain't Rufus
TTITLE10=The Digital Number Of The Beast
TTITLE11=A Life Full Of Debt
EXTD=
EXTT0=
EXTT1=
EXTT2=
EXTT3=
EXTT4=
EXTT5=
EXTT6=
EXTT7=
EXTT8=
EXTT9=
EXTT10=
EXTT11=
PLAYORDER=
